<?xml version="1.0" encoding="UTF-8" standalone="no"?>
<svg width="11.2889mm" height="11.2889mm"
 viewBox="0 0 32 32"
 xmlns="http://www.w3.org/2000/svg" xmlns:xlink="http://www.w3.org/1999/xlink"  version="1.2" baseProfile="tiny">
<title>Qt SVG Document</title>
<desc>Generated with Qt</desc>
<defs>
</defs>
<g fill="none" stroke="black" stroke-width="1" fill-rule="evenodd" stroke-linecap="square" stroke-linejoin="bevel" >

<g fill="none" stroke="#000000" stroke-opacity="1" stroke-width="1" stroke-linecap="square" stroke-linejoin="bevel" transform="matrix(1,0,0,1,16,16)"
font-family="MS Shell Dlg 2" font-size="12" font-weight="400" font-style="normal" 
>
</g>

<g fill="none" stroke="#000000" stroke-opacity="1" stroke-width="1" stroke-linecap="square" stroke-linejoin="bevel" transform="matrix(1.33333,0,0,1.33333,16,16)"
font-family="MS Shell Dlg 2" font-size="12" font-weight="400" font-style="normal" 
>
</g>

<g fill="#487bb6" fill-opacity="1" stroke="none" transform="matrix(0.0332338,0,0,0.0332338,6.3622,6.3622)"
font-family="MS Shell Dlg 2" font-size="12" font-weight="400" font-style="normal" 
>
<path vector-effect="none" fill-rule="nonzero" d="M542.936,486.242 C542.936,517.554 517.553,542.935 486.243,542.935 L93.757,542.935 C62.446,542.935 37.064,517.553 37.064,486.242 L37.064,93.757 C37.064,62.446 62.446,37.064 93.757,37.064 L486.242,37.064 C517.553,37.064 542.935,62.446 542.935,93.757 L542.935,486.242 L542.936,486.242"/>
</g>

<g fill="none" stroke="#ffffff" stroke-opacity="1" stroke-width="34.1176" stroke-linecap="butt" stroke-linejoin="miter" stroke-miterlimit="4" transform="matrix(0.0332338,0,0,0.0332338,6.3622,6.3622)"
font-family="MS Shell Dlg 2" font-size="12" font-weight="400" font-style="normal" 
>
<path vector-effect="none" fill-rule="nonzero" d="M542.936,486.242 C542.936,517.554 517.553,542.935 486.243,542.935 L93.757,542.935 C62.446,542.935 37.064,517.553 37.064,486.242 L37.064,93.757 C37.064,62.446 62.446,37.064 93.757,37.064 L486.242,37.064 C517.553,37.064 542.935,62.446 542.935,93.757 L542.935,486.242 L542.936,486.242"/>
</g>

<g fill="none" stroke="#000000" stroke-opacity="1" stroke-width="1" stroke-linecap="square" stroke-linejoin="bevel" transform="matrix(1.33333,0,0,1.33333,16,16)"
font-family="MS Shell Dlg 2" font-size="12" font-weight="400" font-style="normal" 
>
</g>

<g fill="none" stroke="#000000" stroke-opacity="1" stroke-width="1" stroke-linecap="square" stroke-linejoin="bevel" transform="matrix(1,0,0,1,16,16)"
font-family="MS Shell Dlg 2" font-size="12" font-weight="400" font-style="normal" 
>
</g>

<g fill="none" stroke="#000000" stroke-opacity="1" stroke-width="1" stroke-linecap="square" stroke-linejoin="bevel" transform="matrix(1,0,0,1,0,0)"
font-family="MS Shell Dlg 2" font-size="12" font-weight="400" font-style="normal" 
>
</g>

<g fill="none" stroke="#000000" stroke-opacity="1" stroke-width="1" stroke-linecap="square" stroke-linejoin="bevel" transform="matrix(1,0,0,1,16,16)"
font-family="MS Shell Dlg 2" font-size="12" font-weight="400" font-style="normal" 
>
</g>

<g fill="none" stroke="#000000" stroke-opacity="1" stroke-width="1" stroke-linecap="square" stroke-linejoin="bevel" transform="matrix(1.33333,0,0,1.33333,16,16)"
font-family="MS Shell Dlg 2" font-size="12" font-weight="400" font-style="normal" 
>
</g>

<g fill="#ffffff" fill-opacity="1" stroke="none" transform="matrix(0.0234591,0,0,0.0234591,9.19685,9.19685)"
font-family="MS Shell Dlg 2" font-size="12" font-weight="400" font-style="normal" 
>
<path vector-effect="none" fill-rule="nonzero" d="M475.35,266.891 C469.404,260.79 461.096,257.569 452.607,258.034 L349.857,263.753 L406.403,199.353 C414.458,190.18 416.76,177.951 413.645,167.024 C412.002,159.536 407.467,152.722 400.501,148.37 C400.287,148.217 265.338,69.822 265.338,69.822 C254.318,63.4207 240.433,64.831 230.924,73.3129 L165.003,132.115 C152.858,142.948 151.794,161.576 162.628,173.722 C173.463,185.867 192.091,186.934 204.236,176.097 L254.213,131.516 L295.528,155.509 L222.6,238.567 C192.359,243.499 165.149,257.434 143.79,277.526 L181.874,315.61 C199.09,299.956 221.949,290.401 246.997,290.401 C300.424,290.401 343.891,333.869 343.891,387.297 C343.891,412.345 334.336,435.203 318.684,452.419 L356.766,490.503 C382.134,463.534 397.704,427.246 397.704,387.297 C397.704,363.496 392.178,340.989 382.354,320.974 L422.126,318.759 L412.451,437.436 C411.128,453.657 423.208,467.878 439.43,469.202 C440.242,469.268 441.053,469.299 441.856,469.299 C457.045,469.299 469.94,457.628 471.195,442.224 L483.613,289.853 C484.306,281.363 481.292,272.99 475.35,266.891 L475.35,266.891"/>
</g>

<g fill="none" stroke="#ffffff" stroke-opacity="1" stroke-width="12.0833" stroke-linecap="butt" stroke-linejoin="miter" stroke-miterlimit="4" transform="matrix(0.0234591,0,0,0.0234591,9.19685,9.19685)"
font-family="MS Shell Dlg 2" font-size="12" font-weight="400" font-style="normal" 
>
<path vector-effect="none" fill-rule="nonzero" d="M475.35,266.891 C469.404,260.79 461.096,257.569 452.607,258.034 L349.857,263.753 L406.403,199.353 C414.458,190.18 416.76,177.951 413.645,167.024 C412.002,159.536 407.467,152.722 400.501,148.37 C400.287,148.217 265.338,69.822 265.338,69.822 C254.318,63.4207 240.433,64.831 230.924,73.3129 L165.003,132.115 C152.858,142.948 151.794,161.576 162.628,173.722 C173.463,185.867 192.091,186.934 204.236,176.097 L254.213,131.516 L295.528,155.509 L222.6,238.567 C192.359,243.499 165.149,257.434 143.79,277.526 L181.874,315.61 C199.09,299.956 221.949,290.401 246.997,290.401 C300.424,290.401 343.891,333.869 343.891,387.297 C343.891,412.345 334.336,435.203 318.684,452.419 L356.766,490.503 C382.134,463.534 397.704,427.246 397.704,387.297 C397.704,363.496 392.178,340.989 382.354,320.974 L422.126,318.759 L412.451,437.436 C411.128,453.657 423.208,467.878 439.43,469.202 C440.242,469.268 441.053,469.299 441.856,469.299 C457.045,469.299 469.94,457.628 471.195,442.224 L483.613,289.853 C484.306,281.363 481.292,272.99 475.35,266.891 L475.35,266.891"/>
</g>

<g fill="#ffffff" fill-opacity="1" stroke="none" transform="matrix(0.0234591,0,0,0.0234591,9.19685,9.19685)"
font-family="MS Shell Dlg 2" font-size="12" font-weight="400" font-style="normal" 
>
<path vector-effect="none" fill-rule="nonzero" d="M420.768,140.653 C448.011,140.653 470.093,118.569 470.093,91.3249 C470.093,64.0826 448.011,41.996 420.768,41.996 C393.523,41.996 371.439,64.0826 371.439,91.3249 C371.439,118.569 393.522,140.653 420.768,140.653 "/>
</g>

<g fill="none" stroke="#ffffff" stroke-opacity="1" stroke-width="12.0833" stroke-linecap="butt" stroke-linejoin="miter" stroke-miterlimit="4" transform="matrix(0.0234591,0,0,0.0234591,9.19685,9.19685)"
font-family="MS Shell Dlg 2" font-size="12" font-weight="400" font-style="normal" 
>
<path vector-effect="none" fill-rule="nonzero" d="M420.768,140.653 C448.011,140.653 470.093,118.569 470.093,91.3249 C470.093,64.0826 448.011,41.996 420.768,41.996 C393.523,41.996 371.439,64.0826 371.439,91.3249 C371.439,118.569 393.522,140.653 420.768,140.653 "/>
</g>

<g fill="#ffffff" fill-opacity="1" stroke="none" transform="matrix(0.0234591,0,0,0.0234591,9.19685,9.19685)"
font-family="MS Shell Dlg 2" font-size="12" font-weight="400" font-style="normal" 
>
<path vector-effect="none" fill-rule="nonzero" d="M246.998,484.192 C193.57,484.192 150.102,440.724 150.102,387.296 C150.102,367.161 156.28,348.445 166.833,332.933 L128.338,294.439 C108.28,320.036 96.2892,352.258 96.2892,387.296 C96.2892,470.531 163.763,538.004 246.998,538.004 C282.038,538.004 314.257,526.013 339.852,505.954 L301.358,467.461 C285.847,478.011 267.132,484.192 246.998,484.192 "/>
</g>

<g fill="none" stroke="#ffffff" stroke-opacity="1" stroke-width="12.0833" stroke-linecap="butt" stroke-linejoin="miter" stroke-miterlimit="4" transform="matrix(0.0234591,0,0,0.0234591,9.19685,9.19685)"
font-family="MS Shell Dlg 2" font-size="12" font-weight="400" font-style="normal" 
>
<path vector-effect="none" fill-rule="nonzero" d="M246.998,484.192 C193.57,484.192 150.102,440.724 150.102,387.296 C150.102,367.161 156.28,348.445 166.833,332.933 L128.338,294.439 C108.28,320.036 96.2892,352.258 96.2892,387.296 C96.2892,470.531 163.763,538.004 246.998,538.004 C282.038,538.004 314.257,526.013 339.852,505.954 L301.358,467.461 C285.847,478.011 267.132,484.192 246.998,484.192 "/>
</g>

<g fill="none" stroke="#000000" stroke-opacity="1" stroke-width="1" stroke-linecap="square" stroke-linejoin="bevel" transform="matrix(1.33333,0,0,1.33333,16,16)"
font-family="MS Shell Dlg 2" font-size="12" font-weight="400" font-style="normal" 
>
</g>

<g fill="none" stroke="#000000" stroke-opacity="1" stroke-width="1" stroke-linecap="square" stroke-linejoin="bevel" transform="matrix(1,0,0,1,16,16)"
font-family="MS Shell Dlg 2" font-size="12" font-weight="400" font-style="normal" 
>
</g>

<g fill="none" stroke="#000000" stroke-opacity="1" stroke-width="1" stroke-linecap="square" stroke-linejoin="bevel" transform="matrix(1,0,0,1,0,0)"
font-family="MS Shell Dlg 2" font-size="12" font-weight="400" font-style="normal" 
>
</g>
</g>
</svg>
